# AST/ASF file generated using VICON BodyLanguage
# -----------------------------------------------
:version 1.10
:name VICON
:units
  mass 1.0
  length 0.45
  angle deg
:documentation
   .ast/.asf automatically generated from VICON data using
   VICON BodyBuilder and BodyLanguage model FoxedUp or BRILLIANT.MOD
:root
   order TX TY TZ RX RY RZ
   axis XYZ
   position 0 0 0  
   orientation 0 0 0 
:bonedata
  begin
     id 1 
     name lhipjoint
     direction 0.714689 -0.624256 0.315473 
     length 2.45343 
     axis 0 0 0  XYZ
  end
  begin
     id 2 
     name lfemur
     direction 0.34202 -0.939693 0  
     length 6.59069  
     axis 0 0 20  XYZ
    dof rx ry rz
    limits (-160.0 20.0)
           (-70.0 70.0)
           (-60.0 70.0)
  end
  begin
     id 3 
     name ltibia
     direction 0.34202 -0.939693 0   
     length 6.73476   
     axis 0 0 20   XYZ
    dof rx
    limits (-10.0 170.0)
  end
  begin
     id 4 
     name lfoot
     direction 0.0718085 -0.197292 0.977711   
     length 1.52607   
     axis -90 7.62852e-016 20   XYZ
    dof rx rz
    limits (-45.0 90.0)
           (-70.0 20.0)
  end
  begin
     id 5 
     name ltoes
     direction 1.53553e-011 -4.22024e-011 1   
     length 0.777832   
     axis -90 7.62852e-016 20   XYZ
    dof rx
    limits (-90.0 20.0)
  end
  begin
     id 6 
     name rhipjoint
     direction -0.727419 -0.612432 0.309497   
     length 2.50079  
     axis 0 0 0  XYZ 
  end
  begin
     id 7 
     name rfemur
     direction -0.34202 -0.939693 0   
     length 6.51665   
     axis 0 0 -20   XYZ
    dof rx ry rz
    limits (-160.0 20.0)
           (-70.0 70.0)
           (-70.0 60.0)
  end
  begin
     id 8 
     name rtibia
     direction -0.34202 -0.939693 0   
     length 6.48919   
     axis 0 0 -20   XYZ
    dof rx
    limits (-10.0 170.0)
 end
 begin
     id 9 
     name rfoot
     direction -0.112205 -0.308282 0.944655   
     length 1.68717  
     axis -90 -7.62852e-016 -20   XYZ
    dof rx rz
    limits (-45.0 90.0)
           (-20.0 70.0)
  end
  begin
     id 10 
     name rtoes
     direction -1.53583e-011 -4.21993e-011 1   
     length 0.846859   
     axis -90 -7.62852e-016 -20   XYZ
    dof rx
    limits (-90.0 20.0)
  end
  begin
     id 11 
     name lowerback
     direction -0.00119603 0.996364 -0.0851956   
     length 1.67242   
     axis 0 0 0   XYZ
    dof rx ry rz
    limits (-20.0 45.0)
           (-30.0 30.0)
           (-30.0 30.0)
  end
  begin
     id 12 
     name upperback
     direction -0.00531001 0.998318 0.0577248   
     length 1.64819   
     axis 0 0 0   XYZ
    dof rx ry rz
    limits (-20.0 45.0)
           (-30.0 30.0)
           (-30.0 30.0)
  end
  begin
     id 13 
     name thorax
     direction -0.00653676 0.995132 0.0983291   
     length 1.67429   
     axis 0 0 0   XYZ
    dof rx ry rz
    limits (-20.0 45.0)
           (-30.0 30.0)
           (-30.0 30.0)
  end
  begin
     id 14 
     name lowerneck
     direction 0.0141424 0.999886 0.00525412   
     length 1.59623   
     axis 0 0 0   XYZ
    dof rx ry rz
    limits (-20.0 45.0)
           (-30.0 30.0)
           (-30.0 30.0)
  end
  begin
     id 15 
     name upperneck
     direction -0.0640064 0.987178 -0.146232   
     length 1.59576   
     axis 0 0 0   XYZ
    dof rx ry rz
    limits (-20.0 45.0)
           (-30.0 30.0)
           (-30.0 30.0)
  end
  begin
     id 16
     name head
     direction -0.0222942 0.998496 -0.0500859  
     length 1.60959  
     axis 0 0 0   XYZ
    dof rx ry rz
    limits (-20.0 45.0)
           (-30.0 30.0)
           (-30.0 30.0)
  end
  begin
     id 17 
     name lclavicle
     direction 0.908549 0.392612 0.142806  
     length 2.80649  
     axis 0 0 0   XYZ
    dof ry rz
    limits (-20.0 10.0)
           (0.0 20.0)
  end
  begin
     id 18 
     name lhumerus
     direction 1 -4.48968e-011 1.08832e-028   
     length 4.2884   
     axis -180 -30 -90   XYZ
    dof rx ry rz
    limits (-60.0 90.0)
           (-90.0 90.0)
           (-90.0 90.0)
  end
  begin
     id 19
     name lradius
     direction 1 -4.48952e-011 -3.02642e-028   
     length 3.06552   
     axis -180 -30 -90   XYZ
    dof rx
    limits (-10.0 170.0)
  end
  begin
     id 20
     name lwrist
     direction 1 -4.49014e-011 1.58672e-027   
     length 1.53276   
     axis -1.65735e-015 90 90   XYZ
    dof ry
    limits (-180.0 0.0)
 end
  begin
     id 21 
     name lhand
     direction 1 -4.48928e-011 3.17344e-027   
     length 0.753045   
     axis -2.02492e-015 90 90   XYZ
    dof rx rz
    limits (-90.0 90.0)
           (-45.0 45.0)
  end
  begin
     id 22 
     name lfingers
     direction 1 -4.48958e-011 6.34687e-027   
     length 0.607124   
     axis -4.04985e-015 90 90   XYZ
    dof rx
    limits (0.0 90.0)
  end
  begin
     id 23
     name lthumb
     direction 0.707107 -6.34905e-011 0.707107   
     length 0.871712   
     axis -90 45 2.85299e-015   XYZ
    dof rx rz
    limits (-45.0 45.0)
           (-45.0 45.0)
  end
  begin
     id 24 
     name rclavicle
     direction -0.885098 0.45949 0.0739604   
     length 2.9478  
     axis 0 0 0   XYZ 
    dof ry rz
    limits (-10.0 20.0)
           (-20.0 0.0)
  end
  begin
     id 25 
     name rhumerus
     direction -1 -4.4898e-011 -2.61739e-027  
     length 4.52172   
     axis -180 30 90   XYZ
    dof rx ry rz
    limits (-90.0 60.0)
           (-90.0 90.0)
           (-90.0 90.0)
  end
  begin
     id 26 
     name rradius
     direction -1 -4.48945e-011 9.02552e-028   
     length 2.8914   
     axis -180 30 90   XYZ
    dof rx
    limits (-10.0 170.0)
  end
  begin
     id 27 
     name rwrist
     direction -1 -4.49018e-011 1.58672e-027   
     length 1.4457   
     axis -1.65735e-015 -90 -90   XYZ
    dof ry
    limits (-180.0 0.0)
  end
  begin
     id 28
     name rhand
     direction -1 -4.48825e-011 3.17344e-027   
     length 0.680541   
     axis -2.02492e-015 -90 -90   XYZ
    dof rx rz
    limits (-90.0 90.0)
           (-45.0 45.0)
  end
  begin
     id 29
     name rfingers
     direction -1 -4.49067e-011 6.34687e-027   
     length 0.54867   
     axis -4.04985e-015 -90 -90   XYZ
    dof rx
    limits (0.0 90.0)
  end
  begin
     id 30
     name rthumb
     direction -0.707107 -6.34833e-011 0.707107   
     length 0.787783   
     axis -90 -45 -2.85299e-015   XYZ
    dof rx rz
    limits (-45.0 45.0)
           (-45.0 45.0)
  end
:hierarchy
  begin
    root lhipjoint rhipjoint lowerback
    lhipjoint lfemur
    lfemur ltibia
    ltibia lfoot
    lfoot ltoes
    rhipjoint rfemur
    rfemur rtibia
    rtibia rfoot
    rfoot rtoes
    lowerback upperback
    upperback thorax
    thorax lowerneck lclavicle rclavicle
    lowerneck upperneck
    upperneck head
    lclavicle lhumerus
    lhumerus lradius
    lradius lwrist
    lwrist lhand lthumb
    lhand lfingers
    rclavicle rhumerus
    rhumerus rradius
    rradius rwrist
    rwrist rhand rthumb
    rhand rfingers
  end

#!OML:ASF E:\emotionWalksFemale\Project 1\Capture day 1\Session 1\Female1.ASF
:FULLY-SPECIFIED
:DEGREES
49
root 8.85262 15.3595 22.5002 180.539 3.51731 -178.793
lowerback 10.4891 1.15207 2.01495
upperback -2.9713 1.84823 0.162797
thorax -9.01108 0.791664 -1.2961
lowerneck -8.58541 -1.39306 -4.42238
upperneck 10.2294 -1.84067 3.88251
head 4.54579 -0.886218 1.79694
rclavicle 9.27455e-015 -6.95746e-016
rhumerus -43.4985 10.9105 -93.1623
rradius 36.9504
rwrist 25.4913
rhand -4.16944 -53.8658
rfingers 7.12502
rthumb 21.5912 -82.6821
lclavicle 9.27455e-015 -6.95746e-016
lhumerus -42.9476 -4.89173 89.7132
lradius 38.5392
lwrist -11.3148
lhand -5.7147 -34.4068
lfingers 7.12502
lthumb 20.1066 -5.42721
rfemur -7.2901 9.58122 24.7818
rtibia 25.5959
rfoot -18.49 -22.0642
rtoes -2.83086
lfemur -11.5197 -10.194 -20.755
ltibia 30.9283
lfoot -23.5486 10.1641
ltoes -31.1956
50
root 8.85102 15.3497 22.5089 180.719 3.41147 -178.872
lowerback 10.7511 1.09753 1.88471
upperback -3.05185 1.7654 0.170208
thorax -9.25888 0.754882 -1.20829
lowerneck -8.64028 -1.40061 -4.44905
upperneck 10.073 -1.83742 3.91048
head 4.50741 -0.880339 1.80987
rclavicle 1.33073e-014 2.38542e-015
rhumerus -43.3521 11.0269 -93.1074
rradius 36.8571
rwrist 25.0143
rhand -4.15597 -54.0251
rfingers 7.12502
rthumb 21.6042 -82.84
lclavicle 1.33073e-014 2.38542e-015
lhumerus -42.9281 -4.94923 89.6905
lradius 38.5264
lwrist -11.293
lhand -5.9846 -34.8859
lfingers 7.12502
lthumb 19.8472 -5.87928
rfemur -7.7922 9.27891 24.6368
rtibia 26.1051
rfoot -18.7334 -21.8811
rtoes -2.97417
lfemur -12.0265 -10.0072 -20.7838
ltibia 31.3546
lfoot -23.623 10.0461
ltoes -32.2119
51
root 8.84947 15.3414 22.5177 180.871 3.26929 -178.879
lowerback 10.9511 1.0666 1.90303
upperback -3.07985 1.7294 0.147493
thorax -9.40655 0.733025 -1.24183
lowerneck -8.46027 -1.42697 -4.44664
upperneck 9.63173 -1.87027 4.00941
head 4.34459 -0.887862 1.83836
rclavicle 2.31627e-014 8.99501e-015
rhumerus -43.1939 10.9071 -92.9942
rradius 36.842
rwrist 24.8555
rhand -4.1682 -54.1652
rfingers 7.12502
rthumb 21.5924 -82.9814
lclavicle 2.31627e-014 8.99501e-015
lhumerus -42.9586 -5.16491 89.6945
lradius 38.6925
lwrist -11.0706
lhand -6.2207 -34.8296
lfingers 7.12502
lthumb 19.6202 -5.79965
rfemur -8.28915 8.96355 24.5803
rtibia 26.6744
rfoot -19.0247 -21.7486
rtoes -3.20843
lfemur -12.5272 -9.78852 -20.729
ltibia 31.8369
lfoot -23.7848 9.74957
ltoes -32.7303
52
root 8.84844 15.3294 22.528 181.052 3.17119 -178.811
lowerback 11.0596 1.01713 1.96142
upperback -3.07674 1.67874 0.193331
thorax -9.46834 0.705896 -1.21894
lowerneck -8.2222 -1.42351 -4.52308
upperneck 9.11799 -1.84838 4.07832
head 4.14852 -0.873344 1.87414
rclavicle -9.58554e-015 3.47873e-016
rhumerus -43.1451 10.7932 -92.8106
rradius 36.9584
rwrist 25.0241
rhand -4.25172 -53.919
rfingers 7.12502
rthumb 21.5122 -82.7444
lclavicle -9.58554e-015 3.47873e-016
lhumerus -42.9254 -5.00015 89.6527
lradius 38.8033
lwrist -11.0749
lhand -6.23571 -34.4733
lfingers 7.12502
lthumb 19.6058 -5.44194
rfemur -8.81091 8.71774 24.6159
rtibia 27.2299
rfoot -19.2598 -21.6896
rtoes -3.56114
lfemur -13.0566 -9.52829 -20.5813
ltibia 32.3397
lfoot -24.0573 9.21609
ltoes -31.8535
53
root 8.84381 15.3131 22.534 181.194 3.22765 -178.741
lowerback 11.1826 0.987651 2.03722
upperback -3.06729 1.66064 0.265221
thorax -9.53099 0.694499 -1.18425
lowerneck -8.24355 -1.40213 -4.63473
upperneck 8.94018 -1.79354 4.07762
head 4.0965 -0.847002 1.89531
rclavicle 6.8076e-015 -2.48481e-016
rhumerus -43.1758 10.6583 -92.5926
rradius 37.0472
rwrist 25.4239
rhand -4.29942 -53.6344
rfingers 7.12502
rthumb 21.4664 -82.465
lclavicle 6.8076e-015 -2.48481e-016
lhumerus -42.7887 -4.77195 89.6171
lradius 38.6807
lwrist -11.2025
lhand -6.29333 -34.3902
lfingers 7.12502
lthumb 19.5504 -5.35312
rfemur -9.30552 8.53458 24.6391
rtibia 27.8179
rfoot -19.4858 -21.5117
rtoes -3.72423
lfemur -13.5217 -9.21637 -20.4752
ltibia 32.8489
lfoot -24.2857 8.95015
ltoes -31.3991
54
root 8.83605 15.3014 22.5286 181.293 3.66991 -178.72
lowerback 11.183 1.11257 2.11486
upperback -2.99081 1.8337 0.232666
thorax -9.43812 0.773663 -1.29441
lowerneck -8.36715 -1.39245 -4.54295
upperneck 8.77524 -1.77198 4.04081
head 4.06473 -0.830962 1.86974
rclavicle -9.55195e-016 2.6339e-015
rhumerus -43.0872 10.4152 -92.4493
rradius 37.0683
rwrist 25.6114
rhand -4.31121 -53.633
rfingers 7.12502
rthumb 21.4551 -82.4649
lclavicle -9.55195e-016 2.6339e-015
lhumerus -42.5286 -4.80158 89.4894
lradius 38.5265
lwrist -11.1099
lhand -6.44078 -34.6021
lfingers 7.12502
lthumb 19.4086 -5.55068
rfemur -9.78386 8.50071 24.5745
rtibia 28.439
rfoot -19.6181 -21.1799
rtoes -4.26457
lfemur -13.8336 -8.73199 -20.4766
ltibia 33.3548
lfoot -24.5688 8.99233
ltoes -31.4571
55
root 8.83932 15.2896 22.5442 181.646 3.794 -178.797
lowerback 11.2194 1.15177 1.84693
upperback -3.03261 1.84841 0.238574
thorax -9.51277 0.795052 -1.14168
lowerneck -8.25459 -1.39569 -4.40838
upperneck 7.97264 -1.74452 3.80265
head 4.21998 -0.835313 1.97348
rclavicle 9.99456e-015 -2.23633e-015
rhumerus -42.9739 10.2962 -92.3068
rradius 37.2136
rwrist 25.5088
rhand -4.1664 -53.6975
rfingers 7.12502
rthumb 21.5942 -82.5135
lclavicle 9.99456e-015 -2.23633e-015
lhumerus -42.2823 -4.66578 89.3359
lradius 38.4425
lwrist -11.0404
lhand -6.52591 -35.0176
lfingers 7.12502
lthumb 19.3267 -5.95798
rfemur -10.6048 8.39475 24.4337
rtibia 29.0806
rfoot -19.6896 -21.0856
rtoes -5.19611
lfemur -14.5566 -8.33603 -20.461
ltibia 33.8614
lfoot -24.6538 8.90682
ltoes -32.1247
